<svg width="28" height="28" viewBox="0 0 28 28" fill="none" xmlns="http://www.w3.org/2000/svg">
<path d="M14.5513 2.75179C14.3697 2.22938 13.6309 2.22938 13.4493 2.75179L12.7621 4.72886C12.6819 4.95932 12.4669 5.11558 12.2229 5.12055L10.1303 5.16319C9.57732 5.17446 9.34902 5.87711 9.78974 6.21125L11.4577 7.47579C11.6521 7.62319 11.7343 7.87602 11.6636 8.10955L11.0575 10.113C10.8973 10.6423 11.495 11.0766 11.949 10.7607L13.6671 9.56517C13.8674 9.42581 14.1332 9.42581 14.3335 9.56517L16.0515 10.7607C16.5055 11.0766 17.1032 10.6423 16.9431 10.113L16.337 8.10955C16.2663 7.87602 16.3485 7.62319 16.5429 7.47579L18.2108 6.21125C18.6515 5.87711 18.4232 5.17446 17.8703 5.16319L15.7776 5.12055C15.5337 5.11558 15.3186 4.95932 15.2385 4.72886L14.5513 2.75179Z" fill="#1E1E1E" fill-opacity="0.2"/>
<path d="M10.5 14C9.85568 14 9.33334 14.5223 9.33334 15.1667V25.6667H18.6667V15.1667C18.6667 14.5223 18.1443 14 17.5 14H10.5Z" fill="#1E1E1E" fill-opacity="0.2"/>
<path d="M3.50001 19.8333C2.85568 19.8333 2.33334 20.3557 2.33334 21V25.6667H7.00001V19.8333H3.50001Z" fill="#1E1E1E" fill-opacity="0.2"/>
<path d="M21 19.8333H24.5C25.1443 19.8333 25.6667 20.3557 25.6667 21V25.6667H21V19.8333Z" fill="#1E1E1E" fill-opacity="0.2"/>
</svg>
