<svg width="24" height="23" viewBox="0 0 24 23" fill="none" xmlns="http://www.w3.org/2000/svg">
<path d="M13.3889 0.744421C13.171 0.488032 12.853 0.338225 12.5165 0.333461C12.1801 0.328696 11.8579 0.469437 11.6328 0.719552L1.13282 12.3862C0.824613 12.7287 0.746809 13.2204 0.934251 13.6413C1.12169 14.0622 1.53927 14.3333 2 14.3333H4.33333V21.3333C4.33333 21.9777 4.85567 22.5 5.5 22.5H10.1667V16.6667H14.8333V22.5H19.5C20.1443 22.5 20.6667 21.9777 20.6667 21.3333V14.3333H22.4167C22.8714 14.3333 23.2847 14.0691 23.4756 13.6564C23.6665 13.2436 23.6001 12.7576 23.3056 12.4111L13.3889 0.744421Z" fill="#09AA51"/>
</svg>
