<svg width="28" height="28" viewBox="0 0 28 28" fill="none" xmlns="http://www.w3.org/2000/svg">
<path fill-rule="evenodd" clip-rule="evenodd" d="M14 2.33334C9.48968 2.33334 5.83334 5.98968 5.83334 10.5C5.83334 14.7609 8.35853 20.5084 13.1751 25.325C13.6307 25.7806 14.3694 25.7806 14.825 25.325C19.6415 20.5084 22.1667 14.7609 22.1667 10.5C22.1667 5.98968 18.5103 2.33334 14 2.33334ZM14 14C15.933 14 17.5 12.433 17.5 10.5C17.5 8.56701 15.933 7.00001 14 7.00001C12.067 7.00001 10.5 8.56701 10.5 10.5C10.5 12.433 12.067 14 14 14Z" fill="#1E1E1E" fill-opacity="0.2"/>
</svg>
