<svg width="25" height="24" viewBox="0 0 25 24" fill="none" xmlns="http://www.w3.org/2000/svg">
<path fill-rule="evenodd" clip-rule="evenodd" d="M17.1009 13.2278V9.16667C17.1009 6.9 15.4009 5.01111 13.1009 4.53889V3.5C13.1009 3.02778 12.6009 2.55556 12.1009 2.55556C11.6009 2.55556 11.1009 3.02778 11.1009 3.5V4.53889C8.80092 5.01111 7.10092 6.9 7.10092 9.16667V13.3222C6.00092 13.7944 4.10092 15.1167 4.10092 17.6667C4.10092 18.1389 4.60092 18.6111 5.10092 18.6111H9.10092C9.10092 20.1759 10.4441 21.4444 12.1009 21.4444C13.7578 21.4444 15.1009 20.1759 15.1009 18.6111H19.1009C19.6009 18.6111 20.1009 18.1389 20.1009 17.6667C20.1009 15.1167 18.2009 13.7944 17.1009 13.2278ZM6.30092 16.7222H18.0009C17.4639 15.5388 16.3661 15.0741 15.9264 14.888C15.8749 14.8662 15.8324 14.8482 15.8009 14.8333C15.4009 14.6444 15.1009 14.2667 15.1009 13.8889V9.16667C15.1009 7.65556 13.8009 6.33333 12.1009 6.33333C10.4009 6.33333 9.10092 7.65556 9.10092 9.16667V13.8889C9.10092 14.2667 8.80092 14.6444 8.50092 14.8333C8.41697 14.8862 8.29337 14.9377 8.14584 14.9991C7.59046 15.2304 6.69598 15.6029 6.30092 16.7222ZM12.1009 19.5556C11.5486 19.5556 11.1009 19.1327 11.1009 18.6111H13.1009C13.1009 19.1327 12.6532 19.5556 12.1009 19.5556Z" fill="#030017"/>
</svg>
