<svg width="22" height="24" viewBox="0 0 22 24" fill="none" xmlns="http://www.w3.org/2000/svg">
<path fill-rule="evenodd" clip-rule="evenodd" d="M2.22267 15.7452C3.75603 13.6077 6.47168 12 10.9999 12C15.5281 12 18.2437 13.6077 19.7771 15.7452C21.2591 17.8111 21.4951 20.1789 21.4998 21.4892C21.5045 22.8067 20.4 23.6667 19.2675 23.6667H2.73224C1.59978 23.6667 0.495215 22.8067 0.499954 21.4892C0.504667 20.1789 0.740705 17.8111 2.22267 15.7452Z" fill="#1E1E1E" fill-opacity="0.2"/>
<path fill-rule="evenodd" clip-rule="evenodd" d="M11 9.66667C13.5773 9.66667 15.6667 7.57734 15.6667 5.00001C15.6667 2.42268 13.5773 0.333344 11 0.333344C8.42267 0.333344 6.33333 2.42268 6.33333 5.00001C6.33333 7.57734 8.42267 9.66667 11 9.66667Z" fill="#1E1E1E" fill-opacity="0.2"/>
</svg>
